<?xml version="1.0" standalone="no"?>
<!DOCTYPE svg PUBLIC "-//W3C//DTD SVG 20010904//EN"
 "http://www.w3.org/TR/2001/REC-SVG-20010904/DTD/svg10.dtd">
<svg version="1.0" xmlns="http://www.w3.org/2000/svg"
 width="1212.000000pt" height="1212.000000pt" viewBox="0 0 1212.000000 1212.000000"
 preserveAspectRatio="xMidYMid meet">
<metadata>
Created by potrace 1.11, written by Peter Selinger 2001-2013
</metadata>
<g transform="translate(0.000000,1212.000000) scale(0.100000,-0.100000)"
fill="#000000" stroke="none">
<path d="M5685 9733 c-16 -2 -86 -8 -155 -14 -69 -6 -174 -21 -235 -34 -60
-13 -127 -26 -148 -29 -21 -4 -35 -11 -32 -16 3 -6 0 -7 -8 -4 -16 6 -116 -16
-214 -47 -183 -58 -232 -76 -226 -83 4 -4 0 -4 -10 0 -9 3 -17 2 -17 -3 0 -5
-9 -9 -21 -10 -11 -1 -39 -10 -62 -21 -23 -10 -82 -36 -132 -56 -49 -21 -97
-42 -105 -46 -8 -5 -52 -27 -97 -51 -46 -23 -83 -46 -83 -51 0 -5 -4 -7 -10
-3 -5 3 -18 -3 -30 -15 -11 -11 -20 -17 -20 -14 0 5 -73 -32 -95 -48 -34 -26
-118 -78 -125 -78 -5 0 -10 -3 -12 -7 -1 -5 -30 -26 -63 -48 -33 -22 -64 -43
-70 -48 -5 -4 -22 -17 -38 -28 -15 -11 -24 -25 -21 -31 4 -6 2 -8 -4 -4 -6 3
-16 0 -24 -7 -7 -7 -29 -24 -48 -37 -19 -14 -42 -32 -51 -40 -9 -8 -49 -44
-90 -80 -127 -111 -280 -270 -273 -282 4 -6 3 -8 -3 -5 -11 7 -55 -39 -145
-151 -84 -102 -208 -271 -208 -281 0 -5 -6 -14 -14 -20 -8 -7 -34 -44 -57 -84
-24 -40 -46 -74 -49 -77 -3 -3 -10 -14 -16 -25 -6 -11 -24 -45 -41 -75 -91
-166 -233 -473 -233 -503 0 -4 -9 -26 -19 -50 -11 -23 -25 -62 -31 -87 -7 -25
-22 -76 -35 -115 -44 -134 -80 -286 -114 -475 -31 -176 -53 -463 -36 -490 5
-9 4 -11 -3 -6 -7 4 -12 1 -12 -8 0 -8 6 -17 13 -19 9 -4 9 -6 0 -6 -17 -1
-17 -28 0 -34 9 -4 9 -6 0 -6 -7 -1 -13 -10 -13 -22 0 -11 4 -17 10 -14 5 3
10 1 10 -4 0 -6 -4 -11 -9 -11 -5 0 -9 -13 -9 -30 1 -16 6 -30 12 -30 6 0 4
-5 -4 -10 -13 -9 -13 -11 0 -20 10 -6 11 -10 3 -10 -7 0 -13 -5 -13 -11 0 -5
6 -7 13 -3 9 6 9 4 -1 -8 -9 -11 -10 -18 -2 -23 6 -3 7 -11 4 -17 -21 -34 33
-555 66 -643 4 -11 15 -56 25 -100 9 -44 20 -91 25 -105 4 -14 13 -45 21 -70
7 -25 15 -49 18 -55 3 -5 7 -19 8 -30 2 -11 7 -31 12 -45 5 -14 21 -59 36
-100 15 -41 35 -94 46 -116 10 -23 21 -54 25 -68 3 -14 9 -26 13 -26 4 0 8 -6
8 -14 0 -20 113 -254 164 -341 10 -16 26 -46 36 -65 9 -19 23 -41 30 -48 7 -7
13 -17 13 -22 0 -5 6 -15 14 -22 7 -8 21 -29 31 -48 20 -39 43 -72 150 -215
200 -266 378 -457 609 -650 27 -22 62 -52 80 -68 17 -15 37 -25 46 -22 8 4 11
3 7 -1 -9 -9 22 -44 39 -44 7 0 18 -9 24 -20 6 -11 16 -20 22 -20 7 0 38 -20
69 -45 32 -25 61 -45 66 -45 5 0 18 -8 29 -17 11 -10 35 -27 54 -37 19 -11 37
-22 40 -25 3 -4 16 -12 30 -19 14 -7 45 -25 70 -39 82 -47 324 -168 375 -187
28 -10 54 -23 60 -27 5 -5 15 -9 22 -9 7 0 32 -9 56 -19 23 -11 67 -27 97 -36
30 -10 60 -21 65 -25 6 -4 35 -13 65 -20 30 -7 60 -16 65 -20 6 -4 47 -16 93
-25 45 -10 82 -21 82 -24 0 -4 8 -7 18 -8 36 -3 204 -34 225 -42 12 -5 77 -14
145 -22 67 -7 122 -16 122 -20 0 -5 179 -7 398 -5 332 3 419 6 532 23 93 14
139 17 148 10 10 -8 12 -7 10 4 -2 10 24 19 102 35 168 35 300 70 425 115 85
30 149 48 158 42 6 -3 7 -1 3 5 -3 6 9 15 31 22 21 7 43 16 48 20 6 5 30 16
55 25 46 18 223 99 250 116 8 4 35 19 60 32 106 56 229 131 311 189 21 16 42
28 45 28 5 0 48 32 209 157 99 77 185 155 319 289 114 114 166 169 243 261 63
74 203 260 203 268 0 4 13 24 29 44 34 43 85 123 161 256 32 56 170 331 170
339 0 3 14 35 30 71 17 36 30 70 30 76 0 6 6 25 14 42 26 60 55 142 71 202 9
33 20 69 25 80 5 11 14 45 21 75 6 30 15 60 19 65 4 6 15 57 25 115 9 58 20
112 25 120 4 8 13 67 19 130 7 63 17 129 23 145 13 39 22 645 11 747 -6 53 -6
82 1 89 8 9 8 10 -1 5 -15 -8 -17 1 -37 154 -17 134 -38 243 -83 415 -10 39
-21 75 -24 80 -5 8 -23 76 -33 126 -2 8 -13 34 -24 59 -12 25 -22 52 -22 61 0
8 -4 19 -9 25 -5 5 -16 34 -26 64 -10 30 -21 60 -26 66 -5 6 -15 29 -23 51
-19 54 -149 317 -158 321 -5 2 -8 8 -8 13 0 22 -170 289 -252 396 -27 34 -48
65 -48 68 0 3 -8 14 -17 24 -10 11 -30 35 -44 53 -104 130 -288 324 -303 320
-6 -2 -8 -1 -4 3 7 7 -159 172 -190 189 -9 5 -21 15 -27 22 -5 7 -66 55 -135
108 -69 53 -130 100 -137 106 -7 5 -15 10 -18 10 -3 0 -38 22 -78 48 -93 63
-116 77 -207 130 -87 50 -393 202 -408 202 -5 0 -34 11 -64 24 -30 13 -90 36
-134 51 -43 14 -88 30 -99 35 -11 5 -40 14 -65 20 -25 6 -54 15 -65 20 -26 11
-209 54 -365 84 -182 36 -496 64 -484 44 5 -7 2 -8 -7 -2 -21 13 -39 14 -39 1
0 -8 -3 -8 -8 1 -9 13 -38 12 -61 -2 -9 -6 -12 -5 -8 1 4 7 -7 10 -31 8 -23
-1 -36 -7 -34 -14 1 -7 -2 -10 -8 -6 -6 3 -8 10 -5 15 3 5 -20 8 -50 7 -44 -2
-54 -5 -50 -17 4 -12 3 -12 -7 1 -15 18 -83 24 -72 7 5 -7 2 -8 -7 -2 -23 14
-51 16 -43 2 5 -7 3 -8 -7 -2 -16 10 -24 11 -64 7z"/>
</g>
</svg>
